<svg width="245" height="46" viewBox="0 0 245 46" fill="none" xmlns="http://www.w3.org/2000/svg">
<path d="M80.9179 14.9276H73.4434V34.5361H69.3017V14.9276H61.8272V11.3036H80.9179V14.9276ZM94.5403 26.0585C94.5403 31.3328 91.1428 34.8921 86.354 34.8921C81.5651 34.8921 78.1676 31.3328 78.1676 26.0585C78.1676 20.7843 81.5651 17.225 86.354 17.225C91.1428 17.225 94.5403 20.7843 94.5403 26.0585ZM82.0828 26.0585C82.0828 29.5208 83.733 31.624 86.354 31.624C88.9749 31.624 90.6251 29.5208 90.6251 26.0585C90.6251 22.5963 88.9749 20.4931 86.354 20.4931C83.733 20.4931 82.0828 22.5963 82.0828 26.0585ZM106.008 34.8921C103.808 34.8921 102.19 34.0184 101.122 32.7565V34.5361H97.2391V11.3036H101.122V19.3606C102.19 18.0986 103.808 17.225 106.008 17.225C110.764 17.225 113.482 21.2373 113.482 26.0585C113.482 30.8798 110.764 34.8921 106.008 34.8921ZM101.025 25.5732V26.5762C101.025 29.7149 102.837 31.4946 105.231 31.4946C108.046 31.4946 109.567 29.2943 109.567 26.0585C109.567 22.8228 108.046 20.6225 105.231 20.6225C102.837 20.6225 101.025 22.3698 101.025 25.5732ZM116.095 15.2836V11.3036H120.107V15.2836H116.095ZM120.042 17.5486V34.5361H116.159V17.5486H120.042ZM127.682 11.3036V24.6995L134.218 17.5486H138.974L132.567 24.1495L139.492 34.5361H134.994L129.914 26.8675L127.682 29.1325V34.5361H123.799V11.3036H127.682ZM155.622 26.0585C155.622 31.3328 152.225 34.8921 147.436 34.8921C142.647 34.8921 139.249 31.3328 139.249 26.0585C139.249 20.7843 142.647 17.225 147.436 17.225C152.225 17.225 155.622 20.7843 155.622 26.0585ZM143.165 26.0585C143.165 29.5208 144.815 31.624 147.436 31.624C150.057 31.624 151.707 29.5208 151.707 26.0585C151.707 22.5963 150.057 20.4931 147.436 20.4931C144.815 20.4931 143.165 22.5963 143.165 26.0585ZM167.771 22.9199C167.771 27.9353 170.489 31.2357 174.307 31.2357C177.025 31.2357 178.999 29.5855 179.711 26.8675L183.594 28.1941C182.235 32.3035 178.999 34.8921 174.307 34.8921C168.127 34.8921 163.629 29.9738 163.629 22.9199C163.629 15.866 168.127 10.9477 174.307 10.9477C178.999 10.9477 182.235 13.5363 183.594 17.6456L179.711 18.9723C178.999 16.2543 177.025 14.6041 174.307 14.6041C170.489 14.6041 167.771 17.9045 167.771 22.9199ZM189.806 11.3036V34.5361H185.923V11.3036H189.806ZM208.868 26.0585C208.868 31.3328 205.47 34.8921 200.681 34.8921C195.892 34.8921 192.495 31.3328 192.495 26.0585C192.495 20.7843 195.892 17.225 200.681 17.225C205.47 17.225 208.868 20.7843 208.868 26.0585ZM196.41 26.0585C196.41 29.5208 198.06 31.624 200.681 31.624C203.302 31.624 204.952 29.5208 204.952 26.0585C204.952 22.5963 203.302 20.4931 200.681 20.4931C198.06 20.4931 196.41 22.5963 196.41 26.0585ZM225.707 17.5486V34.5361H221.824V32.7241C220.853 33.8566 219.397 34.8921 217.197 34.8921C213.637 34.8921 211.437 32.4653 211.437 28.8089V17.5486H215.32V27.9676C215.32 30.0385 216.226 31.3651 218.329 31.3651C220.076 31.3651 221.824 30.0708 221.824 27.644V17.5486H225.707ZM235.882 34.8921C231.126 34.8921 228.408 30.8798 228.408 26.0585C228.408 21.2373 231.126 17.225 235.882 17.225C238.082 17.225 239.7 18.0986 240.768 19.3606V11.3036H244.651V34.5361H240.768V32.7565C239.7 34.0184 238.082 34.8921 235.882 34.8921ZM240.865 25.5732C240.865 22.3698 239.053 20.6225 236.659 20.6225C233.844 20.6225 232.323 22.8228 232.323 26.0585C232.323 29.2943 233.844 31.4946 236.659 31.4946C239.053 31.4946 240.865 29.7149 240.865 26.5762V25.5732Z" fill="#0D0D0D"/>
<path d="M5.87227 28.7138C9.11597 28.7138 11.7455 26.0842 11.7455 22.8405C11.7455 19.5968 9.11597 16.9673 5.87227 16.9673C2.62857 16.9673 -0.000976562 19.5968 -0.000976562 22.8405C-0.000976562 26.0842 2.62857 28.7138 5.87227 28.7138Z" fill="#FF6200"/>
<path d="M8.48319 12.4747C11.4025 12.4747 13.7691 10.1081 13.7691 7.18876C13.7691 4.26943 11.4025 1.90283 8.48319 1.90283C5.56385 1.90283 3.19727 4.26943 3.19727 7.18876C3.19727 10.1081 5.56385 12.4747 8.48319 12.4747Z" fill="#FF6200"/>
<path d="M8.48319 43.7989C11.4025 43.7989 13.7691 41.4323 13.7691 38.513C13.7691 35.5936 11.4025 33.2271 8.48319 33.2271C5.56385 33.2271 3.19727 35.5936 3.19727 38.513C3.19727 41.4323 5.56385 43.7989 8.48319 43.7989Z" fill="#FF6200"/>
<path d="M29.2045 22.8405C29.2045 26.0842 26.575 28.7138 23.3313 28.7138C20.0876 28.7138 17.458 26.0842 17.458 22.8405C17.458 19.5968 20.0876 16.9673 23.3313 16.9673C26.575 16.9673 29.2045 19.5968 29.2045 22.8405Z" fill="#FF6200"/>
<path d="M29.2045 5.87325C29.2045 9.11695 26.575 11.7465 23.3313 11.7465C20.0876 11.7465 17.458 9.11695 17.458 5.87325C17.458 2.62955 20.0876 0 23.3313 0C26.575 0 29.2045 2.62955 29.2045 5.87325Z" fill="#FF6200"/>
<path d="M29.2045 39.8078C29.2045 43.0515 26.575 45.6811 23.3313 45.6811C20.0876 45.6811 17.458 43.0515 17.458 39.8078C17.458 36.5641 20.0876 33.9346 23.3313 33.9346C26.575 33.9346 29.2045 36.5641 29.2045 39.8078Z" fill="#FF6200"/>
<path d="M40.7902 28.7138C44.0339 28.7138 46.6635 26.0842 46.6635 22.8405C46.6635 19.5968 44.0339 16.9673 40.7902 16.9673C37.5465 16.9673 34.917 19.5968 34.917 22.8405C34.917 26.0842 37.5465 28.7138 40.7902 28.7138Z" fill="#FF6200"/>
<path d="M38.1805 12.4747C41.0998 12.4747 43.4664 10.1081 43.4664 7.18876C43.4664 4.26943 41.0998 1.90283 38.1805 1.90283C35.2611 1.90283 32.8945 4.26943 32.8945 7.18876C32.8945 10.1081 35.2611 12.4747 38.1805 12.4747Z" fill="#FF6200"/>
<path d="M38.1805 43.7989C41.0998 43.7989 43.4664 41.4323 43.4664 38.513C43.4664 35.5936 41.0998 33.2271 38.1805 33.2271C35.2611 33.2271 32.8945 35.5936 32.8945 38.513C32.8945 41.4323 35.2611 43.7989 38.1805 43.7989Z" fill="#FF6200"/>
</svg>
